<?xml version="1.0" encoding="UTF-8"?>
<svg id="Layer_1" xmlns="http://www.w3.org/2000/svg" version="1.1" viewBox="0 0 624.93 624.93">
  <!-- Generator: Adobe Illustrator 30.0.0, SVG Export Plug-In . SVG Version: 2.1.1 Build 123)  -->
  <defs>
    <style>
      .st0 {
        stroke: #000;
        stroke-miterlimit: 10;
        stroke-width: .25px;
      }

      .st1 {
        fill: #fcfcfc;
      }

      .st2, .st3, .st4, .st5 {
        isolation: isolate;
      }

      .st2, .st6 {
        display: none;
      }

      .st7, .st4, .st5 {
        fill: #fff;
      }

      .st8 {
        fill: none;
      }

      .st9 {
        fill: #3b82f6;
      }

      .st4, .st5 {
        font-family: ArialRoundedMTBold, 'Arial Rounded MT Bold';
        font-size: 180px;
      }

      .st5 {
        letter-spacing: .07em;
      }
    </style>
  </defs>
  <rect class="st8" x="-20.87" y="-20.87" width="666.67" height="666.67"/>
  <path class="st1" d="M0,455.68V169.25c0-11.11,1.08-22.12,3.25-33.02,2.16-10.87,5.39-21.51,9.63-31.75,4.24-10.24,9.48-20.05,15.64-29.26,6.16-9.22,13.21-17.81,21.05-25.65,7.84-7.84,16.43-14.89,25.65-21.05s19.02-11.4,29.26-15.64c10.24-4.25,20.88-7.47,31.75-9.63,10.88-2.17,21.94-3.25,33.02-3.25h286.43c11.11,0,22.12,1.08,33.02,3.25,10.87,2.16,21.51,5.39,31.75,9.63,10.24,4.24,20.05,9.48,29.26,15.64,9.22,6.16,17.81,13.21,25.65,21.05s14.89,16.43,21.05,25.65,11.4,19.02,15.64,29.26,7.47,20.88,9.63,31.75c2.17,10.87,3.26,21.93,3.25,33.02v286.43c0,11.11-1.08,22.12-3.25,33.02-2.16,10.87-5.39,21.51-9.63,31.75-4.24,10.24-9.48,20.04-15.64,29.26-6.16,9.22-13.21,17.81-21.05,25.65-7.84,7.84-16.43,14.89-25.65,21.05-9.22,6.16-19.02,11.4-29.26,15.64-10.24,4.25-20.88,7.47-31.75,9.63-10.87,2.17-21.93,3.26-33.02,3.25H169.25c-11.11,0-22.12-1.08-33.02-3.25-10.87-2.16-21.51-5.38-31.75-9.63-10.24-4.24-20.04-9.48-29.26-15.64-9.22-6.16-17.81-13.21-25.65-21.05-7.84-7.84-14.89-16.43-21.05-25.65-6.16-9.22-11.4-19.02-15.64-29.26-4.25-10.24-7.47-20.88-9.63-31.75-2.16-10.87-3.25-21.93-3.25-33.02"/>
  <rect class="st8" width="624.94" height="624.94"/>
  <path class="st9" d="M138.9,0h347.13c76.67,0,138.91,62.24,138.91,138.9v347.13c0,76.66-62.24,138.9-138.9,138.9H138.9c-76.66.01-138.9-62.23-138.9-138.89V138.9C0,62.24,62.24,0,138.9,0Z"/>
  <path class="st7" d="M400.37,227.93"/>
  <path class="st7" d="M513.62,187.91h-31.8c-20.57,0-37.65,15.93-39.06,36.43l-2.32,32.9c-1.1,15.62,11.29,28.87,26.91,28.93h60.66c15.69,0,28.01-13.24,26.98-28.93l-2.32-32.9c-1.46-20.5-18.49-36.43-39.06-36.43"/>
  <path class="st7" d="M243.5,263.58c9.58,0,16.91,4.7,19.59,13.43-6.53,1.71-13.06,2.56-19.71,2.5-10.01,0-13.55-.91-19.96-2.62,2.56-7.69,11.05-13.31,20.08-13.31"/>
  <path class="st9" d="M512.15,240.68v-.92c0-7.93-6.47-14.46-14.4-14.46s-14.46,6.47-14.46,14.46v.92c0,3.54-12.82,3.54-12.82,0v-.92c0-15.01,12.21-27.22,27.28-27.22s27.22,12.21,27.22,27.22v.92c0,3.54-12.75,3.54-12.81,0"/>
  <g id="Layer_3" class="st6">
    <path class="st7" d="M330.27,324.61h-8.3c-7.38,0-13.43,5.98-13.37,13.37v91.85c0,7.38,5.98,13.43,13.37,13.43s13.43-5.98,13.43-13.43v-60.3l22.58,31.86c4.7,6.59,14.46,6.59,19.22,0l22.58-31.86v60.3c0,7.38,5.98,13.43,13.43,13.43s13.43-5.98,13.37-13.43v-91.85c0-7.39-5.98-13.43-13.37-13.37h-8.3c-3.17,0-6.23,1.53-8.06,4.15l-29.23,43.94-29.29-43.94c-1.83-2.62-4.82-4.15-8.06-4.15"/>
    <path class="st7" d="M537.89,324.61c-7.38,0-13.43,5.98-13.43,13.37v56.09c0,17.64-9.95,26.67-26.3,26.61-16.36,0-26.3-9.34-26.24-27.4v-55.29c0-7.39-5.98-13.43-13.43-13.37-7.38,0-13.43,5.98-13.36,13.37v55.9c0,32.71,20.02,49.37,52.73,49.37s53.46-16.48,53.4-50.17v-55.11c0-7.39-5.98-13.43-13.37-13.37"/>
    <path class="st7" d="M161.4,324.61h-78.3c-7.39,0-13.43,5.98-13.43,13.37s5.98,13.43,13.43,13.43h25.75v78.3c0,7.38,5.98,13.43,13.37,13.43s13.43-5.98,13.43-13.43v-78.3h25.75c7.39,0,13.43-5.98,13.43-13.43s-5.98-13.43-13.43-13.37"/>
    <path class="st7" d="M277.3,324.61h-72.56c-7.38,0-13.43,5.98-13.43,13.37v91.73c0,7.38,5.98,13.43,13.43,13.43h72.56c7.38,0,13.43-5.98,13.37-13.43,0-7.38-5.98-13.43-13.37-13.43h-59.2v-19.04h51.51c7.38,0,13.43-5.98,13.43-13.37s-5.98-13.42-13.43-13.42h-51.51v-19.04h59.2c7.38,0,13.43-5.98,13.37-13.43,0-7.39-5.98-13.43-13.37-13.37"/>
  </g>
  <g id="Layer_2" class="st6">
    <g class="st2">
      <text class="st4" transform="translate(65.01 443.69) scale(.98 1)"><tspan x="0" y="0">B</tspan></text>
    </g>
    <g class="st2">
      <text class="st4" transform="translate(181.97 445.79) scale(.98 1)"><tspan x="0" y="0">U</tspan></text>
    </g>
    <g class="st2">
      <text class="st4" transform="translate(304.93 445.79) scale(.98 1)"><tspan x="0" y="0">N</tspan></text>
    </g>
    <g class="st2">
      <text class="st4" transform="translate(470.47 445.41) scale(.98 1)"><tspan x="0" y="0">I</tspan></text>
    </g>
  </g>
  <g id="Text_Combined">
    <g class="st3">
      <text class="st5" transform="translate(61.59 441.69)"><tspan x="0" y="0">BUNI</tspan></text>
    </g>
  </g>
  <path class="st0" d="M357.16,361.46"/>
  <path class="st0" d="M479.81,149.81"/>
  <path class="st0" d="M466.3,123.02"/>
  <path class="st7" d="M154.92,192.57c1.35.78,2.33,2.05,2.73,3.57.41,1.52.2,3.1-.58,4.46l-43.11,74.66c-.1.18-.29.35-.47.5h0c-.19.15-25.41,16.9-25.41,16.9-.14.09-.88.52-1.6.05-.8-.52-.77-1.12-.76-1.41h0c0-.11,1.93-30.13,1.94-30.41.01-.28.09-.51.2-.71l43.1-74.67c1.56-2.71,5.31-3.71,8.03-2.15l15.93,9.2Z"/>
  <path class="st7" d="M214.15,281.33l-6.1-87.52c-.31-4.43,3.2-8.2,7.65-8.2h55.13c4.48,0,8,3.82,7.64,8.28l-7.06,87.52c-.32,3.98-3.65,7.05-7.64,7.05h-41.96c-4.03,0-7.37-3.12-7.65-7.13Z"/>
  <path class="st7" d="M393.51,218.02c-18.2-22.76-25.81-31.99-25.81-31.99-.55-.67-1.17-.53-1.37.32l-2.04,8.64-3.94,16.65-11.32,47.91c-3.76-3.51-9.2-5.7-15.23-5.63-11.21.12-20.22,7.95-20.12,17.48.1,9.54,9.27,17.17,20.49,17.05,8.84-.09,16.31-4.98,19.02-11.72h.05s.09-.38.09-.38c.44-1.17.73-2.4.86-3.66l13.62-57.61c5.91,2.22,14.92,7.19,22.12,18.05,6.15,9.29-2.01,24.17-5.72,30.08-1.01,1.61-.04,1.45.79.84,11.66-8.73,23.65-27.09,8.51-46.04Z"/>
</svg>