<svg xmlns="http://www.w3.org/2000/svg" xmlns:xlink="http://www.w3.org/1999/xlink" width="500" zoomAndPan="magnify" viewBox="0 0 375 374.999991" height="500" preserveAspectRatio="xMidYMid meet" version="1.0"><defs><g/><clipPath id="f9e471d040"><path d="M 70.121094 88.921875 L 268.824219 88.921875 L 268.824219 243 L 70.121094 243 Z M 70.121094 88.921875 " clip-rule="nonzero"/></clipPath><clipPath id="19cef13aff"><path d="M 121 99 L 123 99 L 123 101 L 121 101 Z M 121 99 " clip-rule="nonzero"/></clipPath><clipPath id="2a3e9b4702"><path d="M 111.890625 91.832031 L 160.5 31.761719 L 180.234375 47.734375 L 131.628906 107.804688 Z M 111.890625 91.832031 " clip-rule="nonzero"/></clipPath><clipPath id="f1c21f3b49"><path d="M 111.890625 91.832031 L 160.5 31.761719 L 180.234375 47.734375 L 131.628906 107.804688 Z M 111.890625 91.832031 " clip-rule="nonzero"/></clipPath><clipPath id="c11ca7ba14"><path d="M 115 39 L 173 39 L 173 105 L 115 105 Z M 115 39 " clip-rule="nonzero"/></clipPath><clipPath id="92979909a9"><path d="M 111.890625 91.832031 L 160.5 31.761719 L 180.234375 47.734375 L 131.628906 107.804688 Z M 111.890625 91.832031 " clip-rule="nonzero"/></clipPath><clipPath id="070921081b"><path d="M 111.890625 91.832031 L 160.5 31.761719 L 180.234375 47.734375 L 131.628906 107.804688 Z M 111.890625 91.832031 " clip-rule="nonzero"/></clipPath><clipPath id="69c554b782"><path d="M 169 45 L 231 45 L 231 107 L 169 107 Z M 169 45 " clip-rule="nonzero"/></clipPath><clipPath id="5b5eea9a20"><path d="M 178.949219 39.875 L 230.917969 58.46875 L 211.949219 111.476562 L 159.984375 92.882812 Z M 178.949219 39.875 " clip-rule="nonzero"/></clipPath><clipPath id="8410d1fea3"><path d="M 178.949219 39.875 L 230.917969 58.46875 L 211.949219 111.476562 L 159.984375 92.882812 Z M 178.949219 39.875 " clip-rule="nonzero"/></clipPath><clipPath id="bfd592006f"><path d="M 233 53 L 261 53 L 261 97 L 233 97 Z M 233 53 " clip-rule="nonzero"/></clipPath><clipPath id="c7a872afcf"><path d="M 238.039062 51.113281 L 263.167969 54.75 L 256.53125 100.632812 L 231.402344 97 Z M 238.039062 51.113281 " clip-rule="nonzero"/></clipPath><clipPath id="3811f40394"><path d="M 238.039062 51.113281 L 263.167969 54.75 L 256.53125 100.632812 L 231.402344 97 Z M 238.039062 51.113281 " clip-rule="nonzero"/></clipPath><clipPath id="254a820819"><rect x="0" width="64" y="0" height="88"/></clipPath><clipPath id="42b5e16d4d"><rect x="0" width="263" y="0" height="70"/></clipPath><clipPath id="1f737cafb2"><rect x="0" width="375" y="0" height="375"/></clipPath></defs><g transform="matrix(1, 0, 0, 1, 0, 0)"><g clip-path="url(#1f737cafb2)"><path fill="#fc8c06" d="M 92.867188 0 L 282.132812 0 C 283.652344 0 285.171875 0.0390625 286.6875 0.113281 C 288.207031 0.1875 289.722656 0.296875 291.234375 0.445312 C 292.746094 0.597656 294.253906 0.78125 295.757812 1.003906 C 297.261719 1.226562 298.757812 1.488281 300.25 1.785156 C 301.738281 2.082031 303.222656 2.414062 304.695312 2.78125 C 306.171875 3.152344 307.632812 3.558594 309.089844 4 C 310.542969 4.441406 311.984375 4.917969 313.417969 5.429688 C 314.847656 5.941406 316.265625 6.488281 317.667969 7.070312 C 319.074219 7.652344 320.460938 8.265625 321.835938 8.917969 C 323.210938 9.566406 324.566406 10.25 325.90625 10.964844 C 327.25 11.683594 328.570312 12.429688 329.875 13.210938 C 331.175781 13.992188 332.460938 14.804688 333.726562 15.652344 C 334.988281 16.496094 336.230469 17.371094 337.453125 18.273438 C 338.671875 19.179688 339.871094 20.117188 341.042969 21.078125 C 342.21875 22.042969 343.371094 23.035156 344.496094 24.058594 C 345.621094 25.078125 346.722656 26.125 347.796875 27.199219 C 348.871094 28.273438 349.917969 29.375 350.941406 30.5 C 351.960938 31.628906 352.953125 32.777344 353.917969 33.953125 C 354.882812 35.128906 355.816406 36.324219 356.722656 37.546875 C 357.625 38.765625 358.5 40.007812 359.347656 41.273438 C 360.191406 42.535156 361.003906 43.820312 361.785156 45.125 C 362.566406 46.425781 363.316406 47.75 364.03125 49.089844 C 364.746094 50.429688 365.429688 51.785156 366.082031 53.160156 C 366.730469 54.535156 367.347656 55.921875 367.929688 57.328125 C 368.507812 58.730469 369.054688 60.148438 369.566406 61.582031 C 370.082031 63.011719 370.558594 64.453125 371 65.90625 C 371.4375 67.363281 371.84375 68.828125 372.214844 70.300781 C 372.582031 71.777344 372.914062 73.257812 373.210938 74.75 C 373.507812 76.238281 373.769531 77.734375 373.992188 79.238281 C 374.214844 80.742188 374.402344 82.25 374.550781 83.761719 C 374.699219 85.277344 374.808594 86.789062 374.886719 88.308594 C 374.960938 89.828125 374.996094 91.347656 374.996094 92.867188 L 374.996094 282.132812 C 374.996094 283.652344 374.960938 285.171875 374.886719 286.6875 C 374.808594 288.207031 374.699219 289.722656 374.550781 291.234375 C 374.402344 292.746094 374.214844 294.253906 373.992188 295.757812 C 373.769531 297.261719 373.507812 298.757812 373.210938 300.25 C 372.917969 301.738281 372.582031 303.222656 372.214844 304.695312 C 371.84375 306.171875 371.4375 307.632812 371 309.089844 C 370.558594 310.542969 370.082031 311.984375 369.566406 313.417969 C 369.054688 314.847656 368.507812 316.265625 367.929688 317.667969 C 367.347656 319.074219 366.730469 320.460938 366.082031 321.835938 C 365.429688 323.210938 364.746094 324.566406 364.03125 325.90625 C 363.316406 327.25 362.566406 328.570312 361.785156 329.875 C 361.003906 331.175781 360.191406 332.460938 359.347656 333.726562 C 358.5 334.988281 357.628906 336.230469 356.722656 337.453125 C 355.816406 338.671875 354.882812 339.871094 353.917969 341.042969 C 352.953125 342.21875 351.960938 343.371094 350.941406 344.496094 C 349.917969 345.621094 348.871094 346.722656 347.796875 347.796875 C 346.722656 348.871094 345.621094 349.917969 344.496094 350.941406 C 343.371094 351.960938 342.21875 352.953125 341.042969 353.917969 C 339.871094 354.882812 338.671875 355.816406 337.453125 356.722656 C 336.230469 357.625 334.988281 358.5 333.726562 359.347656 C 332.460938 360.191406 331.175781 361.003906 329.875 361.785156 C 328.570312 362.566406 327.25 363.316406 325.90625 364.03125 C 324.566406 364.746094 323.210938 365.429688 321.835938 366.082031 C 320.460938 366.730469 319.074219 367.347656 317.667969 367.929688 C 316.265625 368.507812 314.847656 369.054688 313.417969 369.566406 C 311.984375 370.082031 310.542969 370.558594 309.089844 371 C 307.632812 371.4375 306.171875 371.84375 304.695312 372.214844 C 303.222656 372.582031 301.738281 372.914062 300.25 373.210938 C 298.757812 373.507812 297.261719 373.769531 295.757812 373.992188 C 294.253906 374.214844 292.746094 374.402344 291.234375 374.550781 C 289.722656 374.699219 288.207031 374.808594 286.6875 374.886719 C 285.171875 374.960938 283.652344 374.996094 282.132812 374.996094 L 92.867188 374.996094 C 91.347656 374.996094 89.828125 374.960938 88.308594 374.886719 C 86.789062 374.808594 85.277344 374.699219 83.761719 374.550781 C 82.25 374.402344 80.742188 374.214844 79.238281 373.992188 C 77.734375 373.769531 76.238281 373.507812 74.75 373.210938 C 73.257812 372.917969 71.777344 372.582031 70.300781 372.214844 C 68.828125 371.84375 67.363281 371.4375 65.90625 371 C 64.453125 370.558594 63.011719 370.082031 61.582031 369.566406 C 60.148438 369.054688 58.730469 368.507812 57.328125 367.929688 C 55.921875 367.347656 54.535156 366.730469 53.160156 366.082031 C 51.785156 365.429688 50.429688 364.746094 49.089844 364.03125 C 47.75 363.316406 46.425781 362.566406 45.125 361.785156 C 43.820312 361.003906 42.535156 360.191406 41.273438 359.347656 C 40.007812 358.5 38.765625 357.628906 37.546875 356.722656 C 36.324219 355.816406 35.128906 354.882812 33.953125 353.917969 C 32.777344 352.953125 31.628906 351.960938 30.5 350.941406 C 29.375 349.917969 28.273438 348.871094 27.199219 347.796875 C 26.125 346.722656 25.078125 345.621094 24.058594 344.496094 C 23.035156 343.371094 22.042969 342.21875 21.078125 341.042969 C 20.117188 339.871094 19.179688 338.671875 18.273438 337.453125 C 17.371094 336.230469 16.496094 334.988281 15.652344 333.726562 C 14.804688 332.460938 13.992188 331.175781 13.210938 329.875 C 12.429688 328.570312 11.683594 327.25 10.964844 325.90625 C 10.25 324.566406 9.566406 323.210938 8.917969 321.835938 C 8.265625 320.460938 7.652344 319.074219 7.070312 317.667969 C 6.488281 316.265625 5.941406 314.847656 5.429688 313.417969 C 4.917969 311.984375 4.441406 310.542969 4 309.089844 C 3.558594 307.632812 3.152344 306.171875 2.78125 304.695312 C 2.414062 303.222656 2.082031 301.738281 1.785156 300.25 C 1.488281 298.757812 1.226562 297.261719 1.003906 295.757812 C 0.78125 294.253906 0.597656 292.746094 0.445312 291.234375 C 0.296875 289.722656 0.1875 288.207031 0.113281 286.6875 C 0.0390625 285.171875 0 283.652344 0 282.132812 L 0 92.867188 C 0 91.347656 0.0390625 89.828125 0.113281 88.308594 C 0.1875 86.789062 0.296875 85.277344 0.445312 83.761719 C 0.597656 82.25 0.78125 80.742188 1.003906 79.238281 C 1.226562 77.734375 1.488281 76.238281 1.785156 74.75 C 2.082031 73.257812 2.414062 71.777344 2.78125 70.300781 C 3.152344 68.828125 3.558594 67.363281 4 65.90625 C 4.441406 64.453125 4.917969 63.011719 5.429688 61.582031 C 5.941406 60.148438 6.488281 58.730469 7.070312 57.328125 C 7.652344 55.921875 8.265625 54.535156 8.917969 53.160156 C 9.566406 51.785156 10.25 50.429688 10.964844 49.089844 C 11.683594 47.75 12.429688 46.425781 13.210938 45.125 C 13.992188 43.820312 14.804688 42.535156 15.652344 41.273438 C 16.496094 40.007812 17.371094 38.765625 18.273438 37.546875 C 19.179688 36.324219 20.117188 35.128906 21.078125 33.953125 C 22.042969 32.777344 23.035156 31.628906 24.058594 30.5 C 25.078125 29.375 26.125 28.273438 27.199219 27.199219 C 28.273438 26.125 29.375 25.078125 30.5 24.058594 C 31.628906 23.035156 32.777344 22.042969 33.953125 21.078125 C 35.128906 20.117188 36.324219 19.179688 37.546875 18.273438 C 38.765625 17.371094 40.007812 16.496094 41.273438 15.652344 C 42.535156 14.804688 43.820312 13.992188 45.125 13.210938 C 46.425781 12.429688 47.75 11.683594 49.089844 10.964844 C 50.429688 10.25 51.785156 9.566406 53.160156 8.917969 C 54.535156 8.265625 55.921875 7.652344 57.328125 7.070312 C 58.730469 6.488281 60.148438 5.941406 61.582031 5.429688 C 63.011719 4.917969 64.453125 4.441406 65.90625 4 C 67.363281 3.558594 68.828125 3.152344 70.300781 2.78125 C 71.777344 2.414062 73.257812 2.082031 74.75 1.785156 C 76.238281 1.488281 77.734375 1.226562 79.238281 1.003906 C 80.742188 0.78125 82.25 0.597656 83.761719 0.445312 C 85.277344 0.296875 86.789062 0.1875 88.308594 0.113281 C 89.828125 0.0390625 91.347656 0 92.867188 0 Z M 92.867188 0 " fill-opacity="1" fill-rule="nonzero"/><g clip-path="url(#f9e471d040)"><path fill="#fafafa" d="M 100.792969 89.4375 L 100.460938 89.4375 L 99.6875 89.261719 L 74.800781 89.191406 L 74.242188 89.191406 C 73.160156 89.316406 72.242188 89.773438 71.488281 90.558594 C 71.050781 90.996094 70.710938 91.503906 70.472656 92.078125 C 70.234375 92.652344 70.121094 93.25 70.121094 93.871094 C 70.121094 94.277344 70.171875 94.671875 70.28125 95.0625 L 70.421875 95.464844 C 70.578125 95.917969 70.804688 96.335938 71.09375 96.71875 C 71.386719 97.101562 71.726562 97.429688 72.117188 97.707031 C 72.511719 97.984375 72.9375 98.195312 73.394531 98.335938 C 73.851562 98.480469 74.320312 98.554688 74.800781 98.550781 L 90.207031 98.550781 C 92.113281 98.523438 93.808594 99.105469 95.289062 100.304688 C 96.414062 101.246094 97.210938 102.414062 97.671875 103.808594 L 103.683594 123.5625 L 121.738281 183.710938 C 121.929688 184.324219 122.140625 184.9375 122.351562 185.464844 L 131.640625 215.90625 C 131.640625 215.90625 131.640625 215.90625 131.640625 215.992188 L 131.640625 216.132812 L 131.847656 216.871094 C 132.027344 217.214844 132.246094 217.539062 132.496094 217.835938 C 132.65625 218.042969 132.835938 218.230469 133.042969 218.394531 L 133.164062 218.519531 C 133.242188 218.566406 133.3125 218.625 133.375 218.691406 L 133.53125 218.691406 L 133.882812 218.921875 L 134.339844 219.132812 L 134.617188 219.238281 L 135.546875 219.238281 L 136.355469 219.339844 L 140.105469 219.339844 C 140.230469 219.339844 140.355469 219.351562 140.480469 219.382812 C 140.601562 219.410156 140.71875 219.457031 140.832031 219.515625 C 140.945312 219.574219 141.046875 219.644531 141.140625 219.730469 C 141.234375 219.816406 141.316406 219.910156 141.386719 220.015625 C 141.457031 220.125 141.511719 220.234375 141.554688 220.355469 C 141.59375 220.476562 141.621094 220.597656 141.632812 220.722656 C 141.640625 220.851562 141.636719 220.976562 141.617188 221.101562 C 141.59375 221.226562 141.558594 221.347656 141.507812 221.460938 C 141.261719 222.042969 141.058594 222.632812 140.886719 223.238281 C 140.714844 223.84375 140.585938 224.457031 140.488281 225.078125 C 140.394531 225.699219 140.339844 226.320312 140.320312 226.949219 C 140.304688 227.578125 140.324219 228.203125 140.382812 228.828125 C 140.441406 229.453125 140.539062 230.074219 140.675781 230.6875 C 140.8125 231.300781 140.984375 231.902344 141.195312 232.496094 C 141.402344 233.085938 141.648438 233.664062 141.929688 234.226562 C 142.210938 234.789062 142.527344 235.332031 142.875 235.855469 C 143.222656 236.375 143.601562 236.875 144.007812 237.351562 C 144.417969 237.828125 144.855469 238.277344 145.320312 238.703125 C 145.785156 239.125 146.273438 239.515625 146.785156 239.878906 C 147.300781 240.242188 147.832031 240.570312 148.386719 240.867188 C 148.941406 241.164062 149.511719 241.425781 150.097656 241.652344 C 150.683594 241.878906 151.28125 242.070312 151.890625 242.222656 C 152.496094 242.375 153.113281 242.492188 153.738281 242.566406 C 154.359375 242.644531 154.988281 242.683594 155.613281 242.683594 C 156.242188 242.683594 156.867188 242.644531 157.492188 242.566406 C 158.117188 242.492188 158.730469 242.375 159.339844 242.222656 C 159.949219 242.070312 160.546875 241.878906 161.132812 241.652344 C 161.71875 241.425781 162.289062 241.164062 162.84375 240.867188 C 163.398438 240.570312 163.929688 240.242188 164.441406 239.878906 C 164.957031 239.515625 165.445312 239.125 165.910156 238.703125 C 166.375 238.277344 166.8125 237.828125 167.222656 237.351562 C 167.628906 236.875 168.007812 236.375 168.355469 235.855469 C 168.703125 235.332031 169.019531 234.789062 169.300781 234.226562 C 169.582031 233.664062 169.824219 233.085938 170.035156 232.496094 C 170.246094 231.902344 170.417969 231.300781 170.554688 230.6875 C 170.691406 230.074219 170.789062 229.453125 170.847656 228.828125 C 170.90625 228.203125 170.925781 227.578125 170.910156 226.949219 C 170.890625 226.320312 170.835938 225.699219 170.742188 225.078125 C 170.644531 224.457031 170.511719 223.84375 170.34375 223.238281 C 170.171875 222.632812 169.964844 222.042969 169.722656 221.460938 C 169.5 220.960938 169.539062 220.480469 169.847656 220.023438 C 170.148438 219.5625 170.574219 219.328125 171.125 219.324219 L 203.757812 219.324219 C 204.3125 219.324219 204.738281 219.558594 205.039062 220.023438 C 205.34375 220.480469 205.386719 220.960938 205.160156 221.460938 C 204.941406 221.980469 204.75 222.511719 204.589844 223.054688 C 204.429688 223.59375 204.296875 224.144531 204.195312 224.699219 C 204.097656 225.253906 204.027344 225.8125 203.988281 226.375 C 203.949219 226.941406 203.941406 227.503906 203.964844 228.066406 C 203.988281 228.632812 204.042969 229.191406 204.128906 229.75 C 204.214844 230.308594 204.332031 230.859375 204.480469 231.40625 C 204.625 231.949219 204.804688 232.484375 205.007812 233.011719 C 205.214844 233.535156 205.449219 234.050781 205.710938 234.550781 C 205.976562 235.046875 206.265625 235.53125 206.582031 236 C 206.898438 236.46875 207.238281 236.914062 207.605469 237.34375 C 207.972656 237.777344 208.359375 238.183594 208.773438 238.570312 C 209.183594 238.957031 209.613281 239.320312 210.066406 239.660156 C 210.515625 239.996094 210.984375 240.3125 211.472656 240.597656 C 211.957031 240.886719 212.457031 241.144531 212.972656 241.375 C 213.488281 241.609375 214.015625 241.8125 214.550781 241.984375 C 215.089844 242.15625 215.632812 242.300781 216.1875 242.414062 C 216.738281 242.527344 217.296875 242.609375 217.859375 242.660156 C 218.421875 242.710938 218.984375 242.730469 219.550781 242.722656 C 220.113281 242.710938 220.675781 242.667969 221.234375 242.59375 C 221.796875 242.523438 222.351562 242.417969 222.898438 242.285156 C 223.445312 242.148438 223.984375 241.984375 224.515625 241.789062 C 225.046875 241.597656 225.5625 241.375 226.070312 241.121094 C 226.574219 240.871094 227.066406 240.59375 227.539062 240.285156 C 228.015625 239.980469 228.46875 239.648438 228.90625 239.292969 C 229.347656 238.9375 229.761719 238.558594 230.160156 238.15625 C 230.554688 237.753906 230.925781 237.328125 231.277344 236.886719 C 231.625 236.441406 231.949219 235.980469 232.246094 235.5 C 232.546875 235.023438 232.816406 234.527344 233.058594 234.019531 C 233.300781 233.507812 233.515625 232.988281 233.703125 232.453125 C 233.886719 231.921875 234.042969 231.378906 234.167969 230.828125 C 234.296875 230.277344 234.390625 229.722656 234.453125 229.160156 C 234.519531 228.601562 234.550781 228.039062 234.554688 227.472656 C 234.558594 225.363281 234.136719 223.34375 233.292969 221.410156 C 233.246094 221.292969 233.210938 221.171875 233.195312 221.046875 C 233.175781 220.925781 233.175781 220.800781 233.1875 220.675781 C 233.199219 220.550781 233.226562 220.429688 233.269531 220.308594 C 233.3125 220.191406 233.367188 220.082031 233.433594 219.976562 C 233.503906 219.871094 233.585938 219.773438 233.675781 219.691406 C 233.769531 219.605469 233.867188 219.53125 233.976562 219.46875 C 234.085938 219.40625 234.203125 219.359375 234.324219 219.328125 C 234.445312 219.292969 234.566406 219.273438 234.695312 219.273438 L 237.515625 219.273438 C 237.824219 219.273438 238.125 219.242188 238.429688 219.179688 C 238.730469 219.121094 239.023438 219.03125 239.304688 218.914062 C 239.589844 218.796875 239.859375 218.652344 240.113281 218.484375 C 240.371094 218.3125 240.605469 218.117188 240.824219 217.902344 C 241.042969 217.683594 241.234375 217.449219 241.40625 217.191406 C 241.578125 216.9375 241.722656 216.667969 241.839844 216.382812 C 241.957031 216.097656 242.042969 215.804688 242.105469 215.503906 C 242.164062 215.203125 242.195312 214.898438 242.195312 214.59375 C 242.195312 214.285156 242.164062 213.980469 242.105469 213.679688 C 242.042969 213.378906 241.957031 213.085938 241.839844 212.800781 C 241.722656 212.515625 241.578125 212.246094 241.40625 211.992188 C 241.234375 211.738281 241.042969 211.5 240.824219 211.28125 C 240.605469 211.066406 240.371094 210.871094 240.113281 210.699219 C 239.859375 210.53125 239.589844 210.386719 239.304688 210.269531 C 239.023438 210.152344 238.730469 210.0625 238.429688 210.003906 C 238.125 209.941406 237.824219 209.914062 237.515625 209.914062 L 149.777344 210.050781 L 145.746094 210.050781 C 144.929688 210.070312 144.125 209.957031 143.339844 209.714844 C 142.558594 209.476562 141.832031 209.117188 141.160156 208.644531 C 140.492188 208.171875 139.910156 207.605469 139.421875 206.949219 C 138.933594 206.289062 138.558594 205.574219 138.300781 204.792969 L 138.300781 204.691406 L 135.898438 197.417969 C 135.75 196.929688 135.828125 196.480469 136.125 196.066406 C 136.429688 195.648438 136.835938 195.4375 137.351562 195.4375 L 237.796875 195.4375 C 243.054688 195.4375 246.558594 191.929688 249.03125 183.832031 L 268.308594 119.546875 C 268.554688 118.738281 268.707031 117.910156 268.765625 117.066406 C 268.824219 116.226562 268.789062 115.386719 268.660156 114.550781 C 268.53125 113.714844 268.3125 112.902344 268 112.117188 C 267.691406 111.332031 267.296875 110.589844 266.820312 109.890625 C 265.9375 108.585938 264.816406 107.535156 263.460938 106.734375 C 262.101562 105.933594 260.640625 105.460938 259.074219 105.316406 L 109.207031 105.316406 C 108.867188 105.316406 108.5625 105.214844 108.289062 105.015625 C 108.019531 104.8125 107.832031 104.550781 107.734375 104.230469 L 104.316406 93.011719 L 104.316406 92.871094 C 104.320312 92.84375 104.320312 92.8125 104.316406 92.785156 L 104.105469 92.046875 C 103.917969 91.6875 103.6875 91.355469 103.421875 91.050781 C 103.257812 90.84375 103.078125 90.660156 102.878906 90.488281 L 102.722656 90.382812 L 102.511719 90.207031 L 102.351562 90.207031 C 102.234375 90.121094 102.113281 90.039062 101.984375 89.964844 L 101.546875 89.683594 L 101.25 89.558594 L 101.355469 88.929688 L 101.160156 89.523438 Z M 219.09375 219.953125 C 219.617188 219.953125 220.136719 220.007812 220.652344 220.109375 C 221.164062 220.210938 221.664062 220.363281 222.148438 220.5625 C 222.628906 220.761719 223.089844 221.007812 223.523438 221.300781 C 223.960938 221.589844 224.363281 221.921875 224.734375 222.289062 C 225.105469 222.660156 225.433594 223.0625 225.726562 223.5 C 226.015625 223.933594 226.261719 224.394531 226.460938 224.878906 C 226.664062 225.363281 226.8125 225.859375 226.917969 226.375 C 227.019531 226.886719 227.070312 227.40625 227.070312 227.929688 C 227.070312 228.453125 227.019531 228.972656 226.917969 229.484375 C 226.8125 230 226.664062 230.496094 226.460938 230.980469 C 226.261719 231.464844 226.015625 231.925781 225.726562 232.359375 C 225.433594 232.796875 225.105469 233.199219 224.734375 233.566406 C 224.363281 233.9375 223.960938 234.269531 223.523438 234.558594 C 223.089844 234.851562 222.628906 235.097656 222.148438 235.296875 C 221.664062 235.496094 221.164062 235.648438 220.652344 235.75 C 220.136719 235.851562 219.617188 235.902344 219.09375 235.902344 C 218.570312 235.902344 218.054688 235.851562 217.539062 235.75 C 217.027344 235.648438 216.527344 235.496094 216.042969 235.296875 C 215.558594 235.097656 215.101562 234.851562 214.664062 234.558594 C 214.230469 234.269531 213.828125 233.9375 213.457031 233.566406 C 213.085938 233.199219 212.753906 232.796875 212.464844 232.359375 C 212.171875 231.925781 211.929688 231.464844 211.726562 230.980469 C 211.527344 230.496094 211.375 230 211.273438 229.484375 C 211.171875 228.972656 211.121094 228.453125 211.121094 227.929688 C 211.121094 227.40625 211.171875 226.886719 211.273438 226.375 C 211.375 225.859375 211.527344 225.363281 211.726562 224.878906 C 211.929688 224.394531 212.171875 223.933594 212.464844 223.5 C 212.753906 223.0625 213.085938 222.660156 213.457031 222.289062 C 213.828125 221.921875 214.230469 221.589844 214.664062 221.300781 C 215.101562 221.007812 215.558594 220.761719 216.042969 220.5625 C 216.527344 220.363281 217.027344 220.210938 217.539062 220.109375 C 218.054688 220.007812 218.570312 219.953125 219.09375 219.953125 Z M 155.457031 219.953125 C 155.980469 219.953125 156.5 220.007812 157.011719 220.109375 C 157.527344 220.210938 158.023438 220.363281 158.507812 220.5625 C 158.992188 220.761719 159.453125 221.007812 159.886719 221.300781 C 160.324219 221.589844 160.726562 221.921875 161.097656 222.289062 C 161.464844 222.660156 161.796875 223.0625 162.085938 223.5 C 162.378906 223.933594 162.625 224.394531 162.824219 224.878906 C 163.023438 225.363281 163.175781 225.859375 163.277344 226.375 C 163.378906 226.886719 163.433594 227.40625 163.433594 227.929688 C 163.433594 228.453125 163.378906 228.972656 163.277344 229.484375 C 163.175781 230 163.023438 230.496094 162.824219 230.980469 C 162.625 231.464844 162.378906 231.925781 162.085938 232.359375 C 161.796875 232.796875 161.464844 233.199219 161.097656 233.566406 C 160.726562 233.9375 160.324219 234.269531 159.886719 234.558594 C 159.453125 234.851562 158.992188 235.097656 158.507812 235.296875 C 158.023438 235.496094 157.527344 235.648438 157.011719 235.75 C 156.5 235.851562 155.980469 235.902344 155.457031 235.902344 C 154.933594 235.902344 154.414062 235.851562 153.902344 235.75 C 153.386719 235.648438 152.890625 235.496094 152.40625 235.296875 C 151.921875 235.097656 151.460938 234.851562 151.027344 234.558594 C 150.589844 234.269531 150.1875 233.9375 149.820312 233.566406 C 149.449219 233.199219 149.117188 232.796875 148.828125 232.359375 C 148.535156 231.925781 148.289062 231.464844 148.089844 230.980469 C 147.890625 230.496094 147.738281 230 147.636719 229.484375 C 147.535156 228.972656 147.484375 228.453125 147.484375 227.929688 C 147.484375 227.402344 147.535156 226.882812 147.636719 226.363281 C 147.742188 225.847656 147.894531 225.347656 148.097656 224.863281 C 148.300781 224.375 148.546875 223.914062 148.839844 223.476562 C 149.136719 223.039062 149.46875 222.636719 149.84375 222.265625 C 150.21875 221.894531 150.625 221.566406 151.0625 221.273438 C 151.503906 220.984375 151.964844 220.738281 152.453125 220.542969 C 152.941406 220.34375 153.445312 220.195312 153.960938 220.097656 C 154.480469 219.996094 155 219.949219 155.527344 219.953125 Z M 155.457031 219.953125 " fill-opacity="1" fill-rule="nonzero"/></g><g clip-path="url(#19cef13aff)"><g clip-path="url(#2a3e9b4702)"><g clip-path="url(#f1c21f3b49)"><path fill="#fafafa" d="M 121.683594 99.746094 C 121.5625 99.636719 121.410156 99.535156 121.371094 99.363281 C 121.539062 99.34375 121.703125 99.328125 121.867188 99.3125 C 121.886719 99.324219 121.929688 99.355469 121.949219 99.371094 C 121.980469 99.328125 122.015625 99.285156 122.050781 99.242188 C 122.027344 99.199219 122.003906 99.152344 121.980469 99.105469 C 122.191406 99.261719 122.429688 99.398438 122.574219 99.617188 C 122.542969 99.601562 122.484375 99.570312 122.453125 99.550781 C 122.417969 99.597656 122.382812 99.640625 122.347656 99.6875 C 122.363281 99.707031 122.398438 99.742188 122.414062 99.761719 C 122.429688 99.925781 122.457031 100.09375 122.460938 100.261719 C 122.273438 100.222656 122.128906 100.097656 121.980469 99.984375 Z M 121.683594 99.746094 " fill-opacity="1" fill-rule="nonzero"/></g></g></g><g clip-path="url(#c11ca7ba14)"><g clip-path="url(#92979909a9)"><g clip-path="url(#070921081b)"><path fill="#fafafa" d="M 170.320312 39.800781 L 170.28125 39.765625 C 169.726562 39.726562 169.179688 40.113281 168.992188 40.628906 C 169.082031 40.820312 169.195312 41.003906 169.328125 41.171875 C 169.503906 41.117188 169.671875 41.039062 169.839844 40.960938 C 169.894531 41.042969 169.921875 41.140625 169.96875 41.230469 C 169.601562 41.46875 169.246094 41.71875 168.886719 41.964844 C 168.867188 41.941406 168.828125 41.886719 168.808594 41.859375 C 168.761719 41.828125 168.71875 41.796875 168.671875 41.761719 C 168.820312 41.640625 168.960938 41.503906 169.085938 41.355469 C 168.957031 41.1875 168.835938 41.015625 168.707031 40.847656 C 168.148438 40.796875 167.589844 41.1875 167.402344 41.710938 C 167.496094 41.902344 167.609375 42.082031 167.742188 42.25 C 167.921875 42.191406 168.097656 42.121094 168.261719 42.03125 C 168.296875 42.128906 168.335938 42.222656 168.382812 42.3125 C 168.03125 42.554688 167.675781 42.800781 167.320312 43.042969 C 167.300781 43.011719 167.257812 42.949219 167.234375 42.917969 C 167.191406 42.890625 167.144531 42.867188 167.101562 42.835938 C 167.25 42.710938 167.394531 42.578125 167.523438 42.429688 C 167.402344 42.28125 167.300781 42.117188 167.179688 41.972656 C 167.113281 41.882812 166.988281 41.917969 166.894531 41.921875 C 166.464844 41.988281 166.066406 42.273438 165.882812 42.664062 C 165.859375 42.714844 165.832031 42.769531 165.863281 42.820312 C 165.9375 43.003906 166.054688 43.167969 166.183594 43.324219 C 166.359375 43.257812 166.535156 43.1875 166.703125 43.101562 C 166.714844 43.152344 166.730469 43.199219 166.746094 43.25 C 166.773438 43.296875 166.800781 43.34375 166.828125 43.386719 C 166.464844 43.632812 166.105469 43.882812 165.746094 44.132812 C 165.679688 44.054688 165.605469 43.984375 165.523438 43.925781 C 165.671875 43.800781 165.8125 43.667969 165.933594 43.515625 C 165.800781 43.359375 165.695312 43.175781 165.550781 43.023438 C 165.375 42.976562 165.183594 43.027344 165.015625 43.09375 C 164.671875 43.238281 164.371094 43.515625 164.25 43.875 C 164.34375 44.066406 164.457031 44.25 164.589844 44.414062 C 164.769531 44.371094 164.933594 44.261719 165.109375 44.21875 C 165.160156 44.300781 165.1875 44.394531 165.234375 44.480469 C 164.875 44.738281 164.503906 44.980469 164.148438 45.238281 C 164.074219 45.160156 163.996094 45.09375 163.914062 45.027344 C 164.0625 44.90625 164.203125 44.773438 164.324219 44.625 C 164.203125 44.453125 164.074219 44.285156 163.953125 44.113281 C 163.515625 44.070312 163.085938 44.304688 162.824219 44.644531 C 162.753906 44.75 162.664062 44.855469 162.660156 44.984375 C 162.730469 45.175781 162.847656 45.351562 162.980469 45.503906 C 163.167969 45.480469 163.332031 45.378906 163.5 45.300781 C 163.539062 45.398438 163.582031 45.496094 163.632812 45.589844 C 163.289062 45.828125 162.941406 46.066406 162.59375 46.304688 C 162.523438 46.21875 162.449219 46.140625 162.359375 46.078125 C 162.507812 45.960938 162.644531 45.828125 162.773438 45.6875 C 162.652344 45.519531 162.539062 45.34375 162.402344 45.1875 C 162.28125 45.132812 162.136719 45.171875 162.007812 45.199219 C 161.640625 45.308594 161.292969 45.5625 161.136719 45.921875 C 161.117188 45.964844 161.085938 46.015625 161.113281 46.066406 C 161.1875 46.25 161.308594 46.414062 161.429688 46.570312 C 161.609375 46.511719 161.785156 46.441406 161.949219 46.351562 C 161.984375 46.457031 162.03125 46.558594 162.089844 46.65625 C 161.78125 46.859375 161.484375 47.078125 161.171875 47.28125 C 160.9375 47.433594 160.703125 47.667969 160.707031 47.972656 C 160.710938 48.363281 160.914062 48.738281 160.835938 49.132812 C 160.800781 49.339844 160.65625 49.507812 160.523438 49.664062 C 159.820312 50.507812 159.132812 51.367188 158.425781 52.203125 C 157.628906 53.144531 156.859375 54.113281 156.0625 55.054688 C 155.488281 55.726562 154.9375 56.417969 154.375 57.101562 C 153.585938 58.015625 152.835938 58.957031 152.0625 59.882812 C 151.382812 60.679688 150.726562 61.492188 150.0625 62.300781 C 149.34375 63.148438 148.632812 64.007812 147.933594 64.871094 C 147.160156 65.78125 146.402344 66.703125 145.648438 67.628906 C 144.773438 68.644531 143.941406 69.695312 143.078125 70.71875 C 142.339844 71.585938 141.636719 72.480469 140.898438 73.347656 C 140.734375 73.53125 140.605469 73.773438 140.359375 73.859375 C 140.121094 73.960938 139.828125 73.953125 139.621094 73.789062 C 139.300781 73.546875 139.132812 73.167969 138.96875 72.8125 C 138.632812 72.03125 138.230469 71.277344 137.753906 70.574219 C 137.789062 70.597656 137.859375 70.648438 137.894531 70.675781 C 137.941406 70.597656 137.914062 70.507812 137.894531 70.425781 L 137.855469 70.394531 C 137.898438 70.355469 137.945312 70.316406 137.988281 70.277344 C 138.007812 70.292969 138.042969 70.332031 138.0625 70.351562 C 138.226562 70.367188 138.390625 70.382812 138.554688 70.398438 C 138.554688 70.316406 138.539062 70.238281 138.484375 70.171875 C 138.296875 69.914062 138.089844 69.664062 137.871094 69.429688 C 137.816406 69.363281 137.738281 69.332031 137.65625 69.3125 C 137.652344 69.503906 137.585938 69.703125 137.65625 69.890625 C 137.617188 69.925781 137.578125 69.957031 137.542969 69.992188 C 137.5 69.96875 137.457031 69.945312 137.414062 69.925781 C 137.394531 69.910156 137.359375 69.882812 137.339844 69.867188 C 137.324219 69.882812 137.289062 69.914062 137.273438 69.929688 C 137.292969 69.976562 137.308594 70.023438 137.328125 70.070312 C 136.972656 69.734375 136.585938 69.414062 136.132812 69.214844 C 135.378906 68.875 134.488281 68.832031 133.714844 69.125 C 133.128906 69.34375 132.628906 69.734375 132.207031 70.191406 C 131.527344 70.933594 131.039062 71.835938 130.636719 72.753906 C 130.359375 73.421875 130.113281 74.105469 129.917969 74.800781 C 129.703125 75.640625 129.375 76.460938 128.894531 77.183594 C 128.378906 77.980469 127.679688 78.652344 126.882812 79.164062 C 126.308594 79.539062 125.675781 79.808594 125.0625 80.117188 C 123.804688 80.714844 122.535156 81.292969 121.320312 81.976562 C 119.921875 82.777344 118.566406 83.707031 117.519531 84.945312 C 116.695312 85.914062 116.101562 87.089844 115.878906 88.34375 C 115.660156 89.5625 115.769531 90.820312 116.066406 92.011719 C 116.207031 92.53125 116.453125 93.019531 116.730469 93.480469 C 117.230469 94.296875 117.855469 95.03125 118.507812 95.730469 C 119.449219 96.730469 120.46875 97.648438 121.515625 98.527344 C 121.71875 98.695312 121.914062 98.867188 122.125 99.019531 C 122.050781 98.996094 121.96875 98.960938 121.910156 99.039062 C 122.179688 99.226562 122.429688 99.433594 122.671875 99.652344 C 122.734375 99.582031 122.691406 99.511719 122.652344 99.445312 C 123.253906 99.960938 123.886719 100.4375 124.511719 100.917969 C 125.859375 101.914062 127.253906 102.878906 128.8125 103.515625 C 129.539062 103.808594 130.3125 104.027344 131.101562 104.015625 C 132.269531 103.988281 133.441406 103.769531 134.511719 103.296875 C 135.34375 102.925781 136.105469 102.394531 136.75 101.75 C 137.863281 100.625 138.628906 99.207031 139.207031 97.746094 C 139.824219 96.160156 140.246094 94.507812 140.609375 92.851562 C 140.707031 92.347656 140.902344 91.871094 141.066406 91.382812 C 141.359375 90.574219 141.707031 89.765625 142.257812 89.085938 C 142.875 88.300781 143.710938 87.714844 144.566406 87.214844 C 145.21875 86.851562 145.878906 86.5 146.5 86.082031 C 147.484375 85.417969 148.429688 84.644531 149.089844 83.640625 C 149.539062 82.96875 149.828125 82.15625 149.75 81.339844 C 149.722656 80.96875 149.53125 80.601562 149.207031 80.40625 C 148.847656 80.1875 148.378906 80.128906 147.980469 80.285156 C 147.460938 80.464844 147.007812 80.789062 146.550781 81.089844 C 145.96875 81.457031 145.335938 81.746094 144.664062 81.898438 C 144.414062 81.953125 144.160156 82.011719 143.902344 81.996094 C 143.261719 81.988281 142.585938 81.847656 142.097656 81.40625 C 141.679688 81.042969 141.492188 80.464844 141.546875 79.921875 C 141.589844 79.464844 141.734375 79.011719 142 78.636719 C 142.617188 77.875 143.210938 77.097656 143.8125 76.328125 C 144.1875 75.871094 144.550781 75.40625 144.910156 74.941406 C 145.644531 73.980469 146.421875 73.058594 147.144531 72.09375 C 147.558594 71.59375 147.945312 71.070312 148.363281 70.574219 C 149.0625 69.632812 149.816406 68.730469 150.53125 67.800781 C 151.183594 66.949219 151.871094 66.125 152.519531 65.273438 C 153.097656 64.515625 153.710938 63.789062 154.289062 63.027344 C 154.851562 62.292969 155.445312 61.585938 156.003906 60.847656 C 156.765625 59.863281 157.558594 58.902344 158.3125 57.910156 C 158.910156 57.152344 159.523438 56.40625 160.105469 55.632812 C 160.726562 54.84375 161.363281 54.066406 161.96875 53.261719 C 162.367188 52.757812 162.769531 52.253906 163.175781 51.757812 C 163.785156 50.890625 164.574219 50.160156 165.441406 49.5625 C 165.980469 49.183594 166.5625 48.871094 167.128906 48.535156 C 167.839844 48.105469 168.53125 47.601562 169.019531 46.917969 C 169.332031 46.492188 169.546875 45.996094 169.65625 45.480469 C 169.707031 45.269531 169.695312 45.019531 169.855469 44.855469 C 170.246094 44.464844 170.839844 44.472656 171.308594 44.234375 C 171.753906 44.023438 172.132812 43.644531 172.285156 43.167969 C 172.453125 42.664062 172.453125 42.085938 172.195312 41.613281 C 172 41.230469 171.644531 40.925781 171.230469 40.804688 C 170.984375 40.734375 170.722656 40.8125 170.492188 40.917969 C 170.457031 40.867188 170.421875 40.816406 170.386719 40.765625 C 170.34375 40.742188 170.296875 40.714844 170.253906 40.691406 C 170.402344 40.5625 170.542969 40.429688 170.675781 40.28125 C 170.554688 40.121094 170.441406 39.960938 170.320312 39.800781 Z M 170.320312 39.800781 " fill-opacity="1" fill-rule="nonzero"/></g></g></g><g clip-path="url(#69c554b782)"><g clip-path="url(#5b5eea9a20)"><g clip-path="url(#8410d1fea3)"><path fill="#fafafa" d="M 220.769531 55.636719 C 220.480469 56.214844 220.121094 56.320312 218.296875 56.359375 C 213.4375 56.46875 211.046875 57.792969 212.113281 59.785156 C 212.4375 60.394531 212.917969 60.648438 215.347656 61.519531 C 216.917969 62.082031 218.6875 62.621094 219.273438 62.714844 L 220.347656 62.890625 L 219.316406 65.753906 C 218.75 67.332031 218.105469 68.757812 217.882812 68.929688 C 217.535156 69.195312 217.503906 69.175781 217.636719 68.78125 C 217.726562 68.53125 217.636719 67.921875 217.4375 67.425781 C 216.4375 64.898438 210.425781 63.578125 205.511719 64.808594 C 202.890625 65.464844 202.40625 65.9375 202.09375 68.144531 C 201.960938 69.09375 201.855469 70.042969 201.859375 70.257812 C 201.867188 70.554688 201.246094 70.414062 199.183594 69.664062 C 196.910156 68.835938 196.542969 68.632812 196.796875 68.335938 C 197.414062 67.617188 198.914062 65.316406 199.101562 64.800781 C 199.433594 63.863281 197.554688 60.652344 195.652344 58.910156 C 194.703125 58.042969 193.683594 57.246094 193.394531 57.140625 C 193.101562 57.035156 192.792969 56.757812 192.710938 56.519531 C 191.679688 53.539062 191.050781 52.664062 188.402344 50.515625 C 187.320312 49.640625 187.203125 49.425781 187.390625 48.667969 C 187.648438 47.621094 187.265625 47.417969 186.570312 48.230469 C 186.15625 48.714844 185.945312 48.757812 185.515625 48.449219 C 185.222656 48.234375 183.921875 47.527344 182.625 46.875 C 180.113281 45.605469 178.476562 45.285156 177.328125 45.828125 C 175.253906 46.808594 176.941406 49.691406 181.960938 53.753906 C 182.257812 53.992188 182.265625 54.375 181.996094 55.132812 C 181.789062 55.707031 181.5625 56.582031 181.488281 57.078125 C 181.363281 57.949219 181.332031 57.964844 180.390625 57.628906 C 179.683594 57.375 179.269531 57.40625 178.832031 57.75 C 178.273438 58.1875 174.710938 63.574219 171.160156 69.347656 C 169.976562 71.277344 169.632812 72.023438 169.710938 72.523438 C 169.761719 72.882812 170.550781 73.933594 171.460938 74.855469 L 173.117188 76.53125 L 171.445312 81.433594 C 170.03125 85.582031 169.835938 86.359375 170.175781 86.480469 C 170.515625 86.601562 170.851562 85.890625 172.351562 81.894531 C 173.328125 79.289062 174.179688 77.179688 174.242188 77.203125 C 174.304688 77.226562 174.90625 77.582031 175.570312 77.996094 L 176.785156 78.75 L 176.09375 81.167969 C 175.636719 82.761719 175.378906 84.488281 175.34375 86.203125 L 175.289062 88.8125 L 172.800781 90.847656 C 170.414062 92.792969 169.65625 93.703125 170.242188 93.914062 C 170.488281 94.003906 171.183594 93.511719 174.445312 90.941406 L 175.578125 90.046875 L 176.171875 92.03125 C 176.738281 93.921875 178.515625 97 179.902344 98.488281 C 182.355469 101.121094 187.058594 103.457031 190.589844 103.796875 C 194.035156 104.128906 196.277344 103.695312 199.742188 102.023438 C 202.011719 100.933594 202.953125 100.613281 203.050781 100.90625 C 203.125 101.132812 203.324219 102.34375 203.496094 103.597656 C 203.667969 104.851562 203.957031 106.007812 204.144531 106.167969 C 204.882812 106.804688 204.996094 105.671875 204.488281 102.636719 L 203.953125 99.449219 L 205.570312 97.621094 C 207.089844 95.902344 207.261719 95.582031 208.445312 92.3125 C 209.136719 90.398438 209.769531 88.457031 209.851562 88 C 209.992188 87.199219 210.050781 87.175781 211.59375 87.351562 C 212.472656 87.453125 213.285156 87.5625 213.398438 87.59375 C 213.507812 87.628906 212.859375 89.738281 211.949219 92.28125 C 209.882812 98.0625 209.214844 100.601562 209.707031 100.777344 C 210.003906 100.882812 210.511719 99.671875 212.453125 94.246094 L 214.835938 87.585938 L 216.101562 87.484375 C 216.796875 87.429688 217.53125 87.226562 217.734375 87.039062 C 218.230469 86.582031 219.128906 80.304688 218.796875 79.605469 C 218.589844 79.167969 218.359375 79.0625 217.566406 79.058594 C 216.261719 79.046875 216.136719 78.976562 216.476562 78.480469 C 216.632812 78.246094 216.867188 77.273438 216.992188 76.320312 C 217.148438 75.105469 217.867188 72.855469 219.375 68.828125 L 221.53125 63.074219 L 223.226562 63.140625 C 229.285156 63.382812 232.46875 61.1875 229.460938 58.84375 C 228.582031 58.15625 223.894531 56.613281 222.382812 56.511719 C 221.847656 56.472656 221.714844 56.332031 221.757812 55.839844 C 221.835938 54.960938 221.175781 54.828125 220.769531 55.636719 M 221.417969 57.632812 C 217.101562 57.242188 213.417969 57.742188 213.050781 58.769531 C 212.878906 59.253906 213.085938 59.449219 214.71875 60.332031 C 215.628906 60.828125 219.886719 61.816406 220.300781 61.628906 C 220.472656 61.554688 220.621094 61 220.636719 60.390625 C 220.660156 59.457031 220.566406 59.28125 220.027344 59.253906 C 218.886719 59.199219 218.546875 59.042969 218.695312 58.632812 C 219.082031 57.550781 223.851562 58.175781 223.691406 59.289062 C 223.632812 59.679688 223.433594 59.726562 222.792969 59.496094 C 221.882812 59.171875 221.714844 59.386719 221.703125 60.875 C 221.691406 62.042969 222.003906 62.160156 224.695312 62 C 228.355469 61.78125 230.34375 60.738281 228.945312 59.773438 C 227.707031 58.914062 224.039062 57.871094 221.417969 57.632812 M 178.664062 46.699219 C 176.425781 46.535156 178.417969 49.726562 182.441406 52.738281 C 182.855469 53.050781 183.03125 52.996094 183.394531 52.4375 C 183.636719 52.0625 183.976562 51.566406 184.144531 51.335938 C 184.375 51.023438 184.296875 50.863281 183.832031 50.691406 C 183.023438 50.394531 182.566406 49.792969 182.933594 49.5 C 183.59375 48.972656 186.464844 50.613281 186.953125 51.796875 C 187.375 52.8125 186.824219 53.074219 186.035156 52.230469 C 185.527344 51.683594 185.339844 51.601562 185.160156 51.839844 C 184.890625 52.199219 184.621094 52.554688 184.347656 52.914062 C 183.710938 53.75 183.578125 53.605469 186.253906 55.023438 C 186.59375 55.203125 187.199219 55.273438 187.59375 55.175781 C 187.992188 55.082031 188.964844 55.152344 189.757812 55.335938 C 190.605469 55.527344 191.203125 55.53125 191.207031 55.339844 C 191.214844 55.164062 190.746094 54.453125 190.175781 53.765625 C 187.621094 50.695312 181.441406 46.898438 178.664062 46.699219 M 188.261719 56.210938 C 187.902344 56.296875 188.101562 56.449219 188.992188 56.769531 C 192.101562 57.894531 196 61.113281 197.320312 63.648438 C 198.128906 65.207031 198.222656 64.589844 197.421875 62.960938 C 195.898438 59.859375 190.300781 55.734375 188.261719 56.210938 M 182.976562 55.777344 C 182.769531 56.355469 182.539062 57.242188 182.464844 57.746094 C 182.34375 58.554688 182.421875 58.679688 183.167969 58.867188 C 183.917969 59.050781 184.125 58.933594 185.027344 57.792969 C 185.585938 57.085938 185.980469 56.394531 185.90625 56.253906 C 185.832031 56.113281 185.226562 55.710938 184.5625 55.359375 L 183.355469 54.722656 Z M 211.875 65.589844 C 211.042969 65.445312 209.640625 65.367188 208.765625 65.410156 C 206.96875 65.503906 203.664062 66.410156 203.507812 66.851562 C 203.449219 67.011719 203.902344 66.984375 204.511719 66.792969 C 207.601562 65.808594 211.136719 65.914062 214.449219 67.085938 C 215.875 67.589844 216.496094 67.714844 216.277344 67.457031 C 215.746094 66.820312 213.507812 65.871094 211.875 65.589844 M 188.054688 58.585938 C 187.402344 59.390625 186.714844 59.15625 187.144531 58.273438 C 187.308594 57.933594 187.261719 57.667969 187.023438 57.582031 C 186.683594 57.460938 185.050781 59.421875 182.699219 62.765625 C 182.164062 63.523438 183.230469 63.542969 183.84375 62.78125 C 184.523438 61.945312 185.097656 62.207031 184.640625 63.148438 C 184.355469 63.746094 184.429688 63.851562 185.613281 64.457031 C 186.320312 64.824219 187.050781 65.253906 187.238281 65.414062 C 187.460938 65.605469 187.761719 65.492188 188.109375 65.085938 C 188.789062 64.289062 189.328125 64.707031 188.886719 65.691406 C 188.589844 66.359375 188.671875 66.558594 189.617188 67.429688 L 190.851562 68.578125 C 190.949219 68.664062 191.441406 68.519531 191.953125 68.253906 C 192.511719 67.964844 193.019531 67.894531 193.234375 68.078125 C 193.429688 68.246094 193.972656 68.441406 194.4375 68.507812 C 195.175781 68.617188 195.410156 68.460938 196.25 67.304688 C 197.210938 65.976562 197.210938 65.972656 196.789062 65.078125 L 196.363281 64.179688 L 195.96875 64.695312 C 195.730469 65.011719 195.410156 65.117188 195.160156 64.964844 C 194.773438 64.734375 194.824219 64.5 195.539062 63.21875 C 195.683594 62.957031 193.71875 60.601562 193.183594 60.398438 C 192.996094 60.328125 192.613281 60.539062 192.332031 60.867188 C 191.648438 61.667969 191.136719 61.210938 191.609375 60.214844 C 192.027344 59.328125 191.675781 58.957031 189.75 58.261719 C 188.75 57.898438 188.582031 57.929688 188.054688 58.585938 M 211.804688 67.324219 C 210.925781 67.171875 210.773438 67.246094 210.519531 67.957031 C 210.160156 68.960938 209.617188 69.066406 209.550781 68.140625 C 209.488281 67.234375 208.800781 67.011719 207.085938 67.332031 C 205.785156 67.578125 205.6875 67.65625 205.515625 68.585938 C 205.371094 69.363281 205.242188 69.546875 204.914062 69.429688 C 204.683594 69.34375 204.503906 69.007812 204.515625 68.679688 C 204.566406 67.261719 203.246094 68.050781 202.96875 69.601562 C 202.703125 71.101562 202.875 71.484375 204.585938 73.148438 L 206.046875 74.574219 L 207.351562 74.5 C 208.539062 74.429688 208.691406 74.335938 209 73.472656 C 209.410156 72.332031 209.90625 72.394531 209.898438 73.582031 L 209.890625 74.441406 L 211.976562 74.75 C 214.042969 75.058594 214.066406 75.050781 214.226562 74.242188 C 214.460938 73.078125 215.316406 73.414062 215.144531 74.601562 C 215.0625 75.164062 215.179688 75.519531 215.484375 75.628906 C 215.929688 75.789062 215.96875 75.671875 216.222656 73.46875 C 216.371094 72.1875 216.464844 70.65625 216.433594 70.066406 C 216.371094 68.867188 215.59375 68.289062 215.390625 69.292969 C 215.195312 70.261719 214.503906 69.996094 214.511719 68.957031 C 214.519531 67.960938 214.117188 67.714844 211.804688 67.324219 M 179.742188 58.558594 C 179.609375 58.664062 180.136719 59.289062 180.914062 59.945312 C 182.097656 60.945312 182.382812 61.089844 182.699219 60.847656 C 183.242188 60.421875 183.261719 60.226562 182.789062 59.894531 C 181.75 59.164062 179.964844 58.378906 179.742188 58.558594 M 177.25 61.859375 C 172.769531 68.859375 171.894531 70.363281 172.011719 70.886719 C 172.210938 71.785156 172.601562 71.84375 173.078125 71.050781 C 173.359375 70.585938 173.699219 70.355469 173.964844 70.449219 C 174.320312 70.578125 174.296875 70.78125 173.832031 71.617188 C 173.289062 72.585938 173.296875 72.65625 174.027344 73.320312 C 174.445312 73.703125 175.183594 74.246094 175.667969 74.53125 C 176.503906 75.015625 176.582031 75.003906 177.128906 74.25 C 177.839844 73.277344 178.285156 73.605469 177.792969 74.734375 C 177.519531 75.367188 177.550781 75.636719 177.925781 75.894531 C 178.195312 76.078125 178.515625 76.105469 178.636719 75.953125 C 180.285156 73.898438 181.316406 72.863281 182.84375 71.734375 L 184.671875 70.386719 L 183.792969 69.710938 C 182.433594 68.660156 181.199219 67.300781 180.664062 66.253906 C 180.136719 65.230469 180.324219 64.265625 181.320312 62.878906 C 181.851562 62.136719 181.84375 62.074219 181.109375 61.566406 C 180.398438 61.078125 180.296875 61.089844 179.828125 61.710938 C 179.042969 62.742188 178.445312 62.332031 178.992188 61.140625 C 179.324219 60.410156 179.335938 60.109375 179.035156 59.933594 C 178.722656 59.746094 178.339844 60.160156 177.25 61.859375 M 182.285156 64.253906 C 181.269531 64.175781 181.664062 64.597656 183.164062 65.1875 C 184 65.515625 185.441406 66.34375 186.359375 67.023438 C 188.820312 68.847656 189.121094 69.023438 189.234375 68.707031 C 189.476562 68.035156 183.753906 64.371094 182.285156 64.253906 M 195.835938 69.695312 C 193.246094 69.296875 189.828125 69.613281 187.316406 70.484375 C 183.34375 71.859375 178.976562 76.3125 177.441406 80.550781 C 175.574219 85.714844 176.492188 92.113281 179.71875 96.386719 C 185.375 103.878906 196.609375 104.851562 203.207031 98.417969 C 205.464844 96.214844 206.671875 94.351562 207.707031 91.449219 C 210.742188 82.976562 206.917969 73.960938 198.933594 70.757812 C 197.625 70.234375 196.230469 69.753906 195.835938 69.695312 M 211.683594 75.691406 C 209.71875 75.46875 207.085938 75.445312 207.011719 75.652344 C 206.871094 76.042969 207.757812 76.234375 209.6875 76.234375 C 210.679688 76.234375 212.445312 76.507812 213.609375 76.84375 C 214.773438 77.179688 215.699219 77.324219 215.667969 77.167969 C 215.605469 76.875 212.730469 75.808594 211.683594 75.691406 M 195.753906 70.675781 C 189.867188 69.6875 183.664062 72.316406 180.265625 77.242188 C 178.960938 79.128906 177.691406 82.5 177.453125 84.699219 C 177.027344 88.59375 178.542969 93.734375 180.933594 96.515625 C 184.632812 100.828125 190.273438 102.734375 195.648438 101.492188 C 200.597656 100.351562 205.054688 96.289062 206.863281 91.265625 C 207.636719 89.113281 208.007812 85.527344 207.675781 83.390625 C 207.34375 81.261719 205.9375 77.945312 204.671875 76.304688 C 202.578125 73.585938 198.773438 71.1875 195.753906 70.675781 M 182.023438 66.042969 C 181.910156 66.367188 183.535156 68.152344 184.914062 69.214844 C 185.703125 69.824219 185.90625 69.875 186.507812 69.628906 C 186.882812 69.472656 187.222656 69.257812 187.261719 69.152344 C 187.359375 68.882812 185.0625 67.234375 183.472656 66.433594 C 182.578125 65.980469 182.09375 65.851562 182.023438 66.042969 M 213.089844 77.683594 C 210.359375 77.273438 209.25 77.140625 208.621094 77.152344 L 207.894531 77.164062 L 208.265625 78.015625 L 208.636719 78.871094 L 210.636719 78.902344 C 214.449219 78.957031 216.105469 78.136719 213.089844 77.683594 M 194.824219 71.730469 C 184.777344 70.417969 176.464844 80.085938 178.964844 90.1875 C 179.78125 93.5 181.773438 96.40625 184.539062 98.316406 C 186.105469 99.398438 189.359375 100.558594 191.285156 100.71875 C 195.050781 101.035156 199.238281 99.472656 202.03125 96.714844 C 203.992188 94.777344 204.855469 93.460938 205.703125 91.121094 C 208.121094 84.4375 205.730469 77.09375 199.980469 73.550781 C 197.953125 72.300781 197.234375 72.046875 194.824219 71.730469 M 213.335938 80.011719 C 211.441406 79.996094 209.796875 80.03125 209.679688 80.09375 C 209.5625 80.152344 209.730469 80.222656 210.054688 80.246094 C 210.378906 80.273438 211.089844 80.367188 211.640625 80.460938 C 212.886719 80.671875 217.039062 80.726562 217.492188 80.539062 C 218.222656 80.238281 216.640625 80.039062 213.335938 80.011719 M 216.488281 81.785156 C 215.664062 81.9375 210.972656 81.574219 210.207031 81.300781 C 209.457031 81.03125 209.410156 81.15625 209.648438 82.859375 L 209.839844 84.230469 L 211.105469 84.488281 C 212.386719 84.753906 216.675781 84.921875 217.125 84.726562 C 217.488281 84.566406 217.734375 81.875 217.398438 81.765625 C 217.234375 81.714844 216.828125 81.722656 216.488281 81.785156 M 189.789062 73.777344 C 188.28125 74.253906 185.75 75.910156 185.511719 76.582031 C 185.246094 77.320312 186.085938 77.144531 187.3125 76.199219 C 188 75.667969 189.328125 74.996094 190.261719 74.707031 C 191.195312 74.414062 192.046875 74.070312 192.148438 73.9375 C 192.550781 73.425781 191.195312 73.335938 189.789062 73.777344 M 190.257812 75.398438 C 189.273438 75.625 188.363281 76.359375 188.558594 76.773438 C 188.699219 77.070312 192.085938 75.992188 192.019531 75.671875 C 191.921875 75.210938 191.410156 75.132812 190.257812 75.398438 M 215.765625 85.832031 C 215.328125 85.894531 213.808594 85.847656 212.394531 85.71875 C 210.976562 85.59375 209.878906 85.625 209.953125 85.785156 C 210.234375 86.371094 216.6875 86.636719 216.890625 86.066406 C 217.003906 85.757812 216.710938 85.695312 215.765625 85.832031 M 170.816406 72.007812 C 170.539062 72.789062 175.007812 76.871094 176.867188 77.535156 C 178.113281 77.984375 177.871094 77.058594 176.5625 76.375 C 175.570312 75.859375 173.289062 73.988281 171.203125 71.984375 C 171.050781 71.835938 170.875 71.847656 170.816406 72.007812 M 197.136719 93.546875 C 196.753906 93.902344 195.898438 94.378906 195.238281 94.605469 C 193.386719 95.238281 193.367188 96.125 195.214844 95.679688 C 196.210938 95.4375 198.300781 94.078125 198.492188 93.542969 C 198.726562 92.886719 197.84375 92.886719 197.136719 93.546875 M 197.242188 96.332031 C 196.1875 96.921875 194.949219 97.304688 193.757812 97.414062 C 192.019531 97.574219 191.167969 98.074219 192.078125 98.402344 C 193.445312 98.890625 199.035156 97.097656 199.410156 96.050781 C 199.675781 95.300781 198.910156 95.402344 197.242188 96.332031 " fill-opacity="1" fill-rule="evenodd"/></g></g></g><g clip-path="url(#bfd592006f)"><g clip-path="url(#c7a872afcf)"><g clip-path="url(#3811f40394)"><path fill="#fafafa" d="M 234.511719 95.324219 C 232.085938 92.410156 234.203125 88.542969 239.152344 86.859375 C 240.804688 86.296875 241.984375 86.121094 244.007812 86.476562 C 245.230469 86.6875 246.542969 87.601562 246.542969 87.601562 C 247.847656 78.578125 250.289062 61.472656 251.507812 53.039062 C 252.007812 53.117188 252.328125 53.15625 253.027344 53.257812 C 252.957031 53.753906 252.898438 54.109375 252.835938 54.546875 C 252.773438 54.976562 252.761719 55.257812 252.765625 55.535156 C 252.792969 58.753906 253.320312 60.09375 256.277344 64.492188 C 260.015625 70.054688 260.878906 73.207031 260.285156 77.136719 C 259.726562 80.828125 255.332031 88.265625 254.644531 87.828125 C 256.070312 85.210938 257.886719 82.425781 258.613281 79.984375 C 259.507812 76.996094 258.890625 72.511719 257.222656 69.949219 C 255.851562 67.84375 252.316406 65.625 251.285156 65.476562 C 251.285156 65.476562 248.613281 83.644531 247.613281 90.535156 C 247.441406 91.722656 246.078125 93.578125 245.367188 94.214844 C 242.128906 97.113281 236.613281 97.839844 234.511719 95.324219 Z M 234.511719 95.324219 " fill-opacity="1" fill-rule="nonzero"/></g></g></g><g transform="matrix(1, 0, 0, 1, 148, 110)"><g clip-path="url(#254a820819)"><g fill="#fafafa" fill-opacity="0.4"><g transform="translate(1.104226, 68.968829)"><g><path d="M 14.0625 -22.453125 C 10.375 -22.453125 7.363281 -23.660156 5.03125 -26.078125 C 2.695312 -28.503906 1.53125 -31.816406 1.53125 -36.015625 C 1.53125 -38.765625 2.066406 -41.164062 3.140625 -43.21875 C 4.210938 -45.269531 5.691406 -46.84375 7.578125 -47.9375 C 9.472656 -49.03125 11.632812 -49.578125 14.0625 -49.578125 C 17.789062 -49.578125 20.816406 -48.351562 23.140625 -45.90625 C 25.472656 -43.46875 26.640625 -40.171875 26.640625 -36.015625 C 26.640625 -31.816406 25.472656 -28.503906 23.140625 -26.078125 C 20.816406 -23.660156 17.789062 -22.453125 14.0625 -22.453125 Z M 43.015625 -48.953125 L 53.078125 -48.953125 L 19.65625 0 L 9.578125 0 Z M 14.0625 -29.09375 C 15.320312 -29.09375 16.320312 -29.648438 17.0625 -30.765625 C 17.8125 -31.890625 18.1875 -33.640625 18.1875 -36.015625 C 18.1875 -38.390625 17.8125 -40.132812 17.0625 -41.25 C 16.320312 -42.375 15.320312 -42.9375 14.0625 -42.9375 C 12.84375 -42.9375 11.847656 -42.363281 11.078125 -41.21875 C 10.316406 -40.082031 9.9375 -38.347656 9.9375 -36.015625 C 9.9375 -33.679688 10.316406 -31.941406 11.078125 -30.796875 C 11.847656 -29.660156 12.84375 -29.09375 14.0625 -29.09375 Z M 48.609375 0.625 C 44.878906 0.625 41.859375 -0.582031 39.546875 -3 C 37.242188 -5.425781 36.09375 -8.738281 36.09375 -12.9375 C 36.09375 -17.082031 37.253906 -20.378906 39.578125 -22.828125 C 41.910156 -25.273438 44.921875 -26.5 48.609375 -26.5 C 52.335938 -26.5 55.363281 -25.273438 57.6875 -22.828125 C 60.019531 -20.378906 61.1875 -17.082031 61.1875 -12.9375 C 61.1875 -8.738281 60.019531 -5.425781 57.6875 -3 C 55.363281 -0.582031 52.335938 0.625 48.609375 0.625 Z M 48.609375 -6.015625 C 49.867188 -6.015625 50.867188 -6.570312 51.609375 -7.6875 C 52.359375 -8.8125 52.734375 -10.5625 52.734375 -12.9375 C 52.734375 -15.3125 52.359375 -17.054688 51.609375 -18.171875 C 50.867188 -19.296875 49.867188 -19.859375 48.609375 -19.859375 C 47.347656 -19.859375 46.34375 -19.296875 45.59375 -18.171875 C 44.851562 -17.054688 44.484375 -15.3125 44.484375 -12.9375 C 44.484375 -10.5625 44.851562 -8.8125 45.59375 -7.6875 C 46.34375 -6.570312 47.347656 -6.015625 48.609375 -6.015625 Z M 48.609375 -6.015625 "/></g></g></g><g fill="#fc8c06" fill-opacity="1"><g transform="translate(1.104226, 68.968829)"><g><path d="M 14.0625 -22.453125 C 10.375 -22.453125 7.363281 -23.660156 5.03125 -26.078125 C 2.695312 -28.503906 1.53125 -31.816406 1.53125 -36.015625 C 1.53125 -38.765625 2.066406 -41.164062 3.140625 -43.21875 C 4.210938 -45.269531 5.691406 -46.84375 7.578125 -47.9375 C 9.472656 -49.03125 11.632812 -49.578125 14.0625 -49.578125 C 17.789062 -49.578125 20.816406 -48.351562 23.140625 -45.90625 C 25.472656 -43.46875 26.640625 -40.171875 26.640625 -36.015625 C 26.640625 -31.816406 25.472656 -28.503906 23.140625 -26.078125 C 20.816406 -23.660156 17.789062 -22.453125 14.0625 -22.453125 Z M 43.015625 -48.953125 L 53.078125 -48.953125 L 19.65625 0 L 9.578125 0 Z M 14.0625 -29.09375 C 15.320312 -29.09375 16.320312 -29.648438 17.0625 -30.765625 C 17.8125 -31.890625 18.1875 -33.640625 18.1875 -36.015625 C 18.1875 -38.390625 17.8125 -40.132812 17.0625 -41.25 C 16.320312 -42.375 15.320312 -42.9375 14.0625 -42.9375 C 12.84375 -42.9375 11.847656 -42.363281 11.078125 -41.21875 C 10.316406 -40.082031 9.9375 -38.347656 9.9375 -36.015625 C 9.9375 -33.679688 10.316406 -31.941406 11.078125 -30.796875 C 11.847656 -29.660156 12.84375 -29.09375 14.0625 -29.09375 Z M 48.609375 0.625 C 44.878906 0.625 41.859375 -0.582031 39.546875 -3 C 37.242188 -5.425781 36.09375 -8.738281 36.09375 -12.9375 C 36.09375 -17.082031 37.253906 -20.378906 39.578125 -22.828125 C 41.910156 -25.273438 44.921875 -26.5 48.609375 -26.5 C 52.335938 -26.5 55.363281 -25.273438 57.6875 -22.828125 C 60.019531 -20.378906 61.1875 -17.082031 61.1875 -12.9375 C 61.1875 -8.738281 60.019531 -5.425781 57.6875 -3 C 55.363281 -0.582031 52.335938 0.625 48.609375 0.625 Z M 48.609375 -6.015625 C 49.867188 -6.015625 50.867188 -6.570312 51.609375 -7.6875 C 52.359375 -8.8125 52.734375 -10.5625 52.734375 -12.9375 C 52.734375 -15.3125 52.359375 -17.054688 51.609375 -18.171875 C 50.867188 -19.296875 49.867188 -19.859375 48.609375 -19.859375 C 47.347656 -19.859375 46.34375 -19.296875 45.59375 -18.171875 C 44.851562 -17.054688 44.484375 -15.3125 44.484375 -12.9375 C 44.484375 -10.5625 44.851562 -8.8125 45.59375 -7.6875 C 46.34375 -6.570312 47.347656 -6.015625 48.609375 -6.015625 Z M 48.609375 -6.015625 "/></g></g></g></g></g><g transform="matrix(1, 0, 0, 1, 60, 248)"><g clip-path="url(#42b5e16d4d)"><g fill="#fc8c06" fill-opacity="0.4"><g transform="translate(0.906, 54.656293)"><g><path d="M 34.96875 -8.46875 L 34.96875 0 L 3.875 0 L 3.875 -38.734375 L 34.25 -38.734375 L 34.25 -30.265625 L 14.71875 -30.265625 L 14.71875 -23.734375 L 31.921875 -23.734375 L 31.921875 -15.546875 L 14.71875 -15.546875 L 14.71875 -8.46875 Z M 34.96875 -8.46875 "/></g></g></g><g fill="#fc8c06" fill-opacity="0.4"><g transform="translate(34.818236, 54.656293)"><g><path d="M 3.375 -41.046875 L 13.890625 -41.046875 L 13.890625 0 L 3.375 0 Z M 3.375 -41.046875 "/></g></g></g><g fill="#fc8c06" fill-opacity="0.4"><g transform="translate(48.86965, 54.656293)"><g><path d="M 13.390625 -26.390625 C 14.460938 -27.753906 15.851562 -28.773438 17.5625 -29.453125 C 19.28125 -30.140625 21.242188 -30.484375 23.453125 -30.484375 L 23.453125 -21.03125 C 22.492188 -21.132812 21.703125 -21.1875 21.078125 -21.1875 C 18.828125 -21.1875 17.066406 -20.578125 15.796875 -19.359375 C 14.523438 -18.140625 13.890625 -16.28125 13.890625 -13.78125 L 13.890625 0 L 3.375 0 L 3.375 -29.984375 L 13.390625 -29.984375 Z M 13.390625 -26.390625 "/></g></g></g><g fill="#fc8c06" fill-opacity="0.4"><g transform="translate(70.113001, 54.656293)"><g><path d="M 18.421875 0.5 C 15.210938 0.5 12.316406 -0.160156 9.734375 -1.484375 C 7.148438 -2.816406 5.128906 -4.660156 3.671875 -7.015625 C 2.222656 -9.378906 1.5 -12.054688 1.5 -15.046875 C 1.5 -17.992188 2.222656 -20.648438 3.671875 -23.015625 C 5.128906 -25.378906 7.140625 -27.210938 9.703125 -28.515625 C 12.273438 -29.828125 15.179688 -30.484375 18.421875 -30.484375 C 21.671875 -30.484375 24.585938 -29.828125 27.171875 -28.515625 C 29.753906 -27.210938 31.765625 -25.390625 33.203125 -23.046875 C 34.640625 -20.703125 35.359375 -18.035156 35.359375 -15.046875 C 35.359375 -12.054688 34.640625 -9.378906 33.203125 -7.015625 C 31.765625 -4.660156 29.753906 -2.816406 27.171875 -1.484375 C 24.585938 -0.160156 21.671875 0.5 18.421875 0.5 Z M 18.421875 -7.859375 C 20.265625 -7.859375 21.773438 -8.492188 22.953125 -9.765625 C 24.140625 -11.035156 24.734375 -12.796875 24.734375 -15.046875 C 24.734375 -17.265625 24.140625 -19 22.953125 -20.25 C 21.773438 -21.5 20.265625 -22.125 18.421875 -22.125 C 16.578125 -22.125 15.0625 -21.5 13.875 -20.25 C 12.695312 -19 12.109375 -17.265625 12.109375 -15.046875 C 12.109375 -12.796875 12.695312 -11.035156 13.875 -9.765625 C 15.0625 -8.492188 16.578125 -7.859375 18.421875 -7.859375 Z M 18.421875 -7.859375 "/></g></g></g><g fill="#fc8c06" fill-opacity="0.4"><g transform="translate(103.6933, 54.656293)"><g><path d="M 34.96875 -29.984375 L 22.015625 1.21875 C 20.503906 4.90625 18.660156 7.492188 16.484375 8.984375 C 14.304688 10.484375 11.648438 11.234375 8.515625 11.234375 C 6.929688 11.234375 5.335938 10.984375 3.734375 10.484375 C 2.128906 9.984375 0.828125 9.328125 -0.171875 8.515625 L 3.484375 1.15625 C 4.078125 1.707031 4.785156 2.140625 5.609375 2.453125 C 6.441406 2.773438 7.285156 2.9375 8.140625 2.9375 C 9.128906 2.9375 9.945312 2.734375 10.59375 2.328125 C 11.238281 1.921875 11.785156 1.273438 12.234375 0.390625 L -0.609375 -29.984375 L 10.1875 -29.984375 L 17.53125 -11.671875 L 24.953125 -29.984375 Z M 34.96875 -29.984375 "/></g></g></g><g fill="#fc8c06" fill-opacity="0.4"><g transform="translate(134.728762, 54.656293)"><g><path d="M 38.84375 0 L 38.734375 -20.53125 L 28.765625 -3.8125 L 23.90625 -3.8125 L 14 -19.96875 L 14 0 L 3.875 0 L 3.875 -38.734375 L 12.890625 -38.734375 L 26.5 -16.375 L 39.78125 -38.734375 L 48.796875 -38.734375 L 48.90625 0 Z M 38.84375 0 "/></g></g></g><g fill="#fc8c06" fill-opacity="0.4"><g transform="translate(184.241979, 54.656293)"><g><path d="M 16.15625 -30.484375 C 21.132812 -30.484375 24.929688 -29.347656 27.546875 -27.078125 C 30.171875 -24.816406 31.484375 -21.34375 31.484375 -16.65625 L 31.484375 0 L 21.6875 0 L 21.6875 -3.875 C 20.175781 -0.957031 17.226562 0.5 12.84375 0.5 C 10.507812 0.5 8.492188 0.09375 6.796875 -0.71875 C 5.109375 -1.53125 3.828125 -2.628906 2.953125 -4.015625 C 2.085938 -5.398438 1.65625 -6.972656 1.65625 -8.734375 C 1.65625 -11.578125 2.742188 -13.78125 4.921875 -15.34375 C 7.097656 -16.914062 10.457031 -17.703125 15 -17.703125 L 20.96875 -17.703125 C 20.78125 -20.878906 18.660156 -22.46875 14.609375 -22.46875 C 13.171875 -22.46875 11.710938 -22.234375 10.234375 -21.765625 C 8.753906 -21.304688 7.5 -20.671875 6.46875 -19.859375 L 2.9375 -27 C 4.59375 -28.101562 6.609375 -28.957031 8.984375 -29.5625 C 11.367188 -30.175781 13.757812 -30.484375 16.15625 -30.484375 Z M 15.765625 -6.140625 C 16.984375 -6.140625 18.050781 -6.429688 18.96875 -7.015625 C 19.894531 -7.609375 20.5625 -8.476562 20.96875 -9.625 L 20.96875 -12.234375 L 16.4375 -12.234375 C 13.375 -12.234375 11.84375 -11.21875 11.84375 -9.1875 C 11.84375 -8.257812 12.191406 -7.519531 12.890625 -6.96875 C 13.585938 -6.414062 14.546875 -6.140625 15.765625 -6.140625 Z M 15.765625 -6.140625 "/></g></g></g><g fill="#fc8c06" fill-opacity="0.4"><g transform="translate(215.720017, 54.656293)"><g><path d="M 13.390625 -26.390625 C 14.460938 -27.753906 15.851562 -28.773438 17.5625 -29.453125 C 19.28125 -30.140625 21.242188 -30.484375 23.453125 -30.484375 L 23.453125 -21.03125 C 22.492188 -21.132812 21.703125 -21.1875 21.078125 -21.1875 C 18.828125 -21.1875 17.066406 -20.578125 15.796875 -19.359375 C 14.523438 -18.140625 13.890625 -16.28125 13.890625 -13.78125 L 13.890625 0 L 3.375 0 L 3.375 -29.984375 L 13.390625 -29.984375 Z M 13.390625 -26.390625 "/></g></g></g><g fill="#fc8c06" fill-opacity="0.4"><g transform="translate(236.963369, 54.656293)"><g><path d="M 24.0625 -1.21875 C 23.175781 -0.664062 22.097656 -0.242188 20.828125 0.046875 C 19.554688 0.347656 18.203125 0.5 16.765625 0.5 C 12.859375 0.5 9.851562 -0.457031 7.75 -2.375 C 5.644531 -4.289062 4.59375 -7.148438 4.59375 -10.953125 L 4.59375 -21.03125 L 0.21875 -21.03125 L 0.21875 -28.875 L 4.59375 -28.875 L 4.59375 -36.6875 L 15.109375 -36.6875 L 15.109375 -28.875 L 21.96875 -28.875 L 21.96875 -21.03125 L 15.109375 -21.03125 L 15.109375 -11.0625 C 15.109375 -10 15.390625 -9.160156 15.953125 -8.546875 C 16.523438 -7.941406 17.296875 -7.640625 18.265625 -7.640625 C 19.472656 -7.640625 20.539062 -7.953125 21.46875 -8.578125 Z M 24.0625 -1.21875 "/></g></g></g><g fill="#fafafa" fill-opacity="1"><g transform="translate(0.906, 54.656293)"><g><path d="M 34.96875 -8.46875 L 34.96875 0 L 3.875 0 L 3.875 -38.734375 L 34.25 -38.734375 L 34.25 -30.265625 L 14.71875 -30.265625 L 14.71875 -23.734375 L 31.921875 -23.734375 L 31.921875 -15.546875 L 14.71875 -15.546875 L 14.71875 -8.46875 Z M 34.96875 -8.46875 "/></g></g></g><g fill="#fafafa" fill-opacity="1"><g transform="translate(34.818236, 54.656293)"><g><path d="M 3.375 -41.046875 L 13.890625 -41.046875 L 13.890625 0 L 3.375 0 Z M 3.375 -41.046875 "/></g></g></g><g fill="#fafafa" fill-opacity="1"><g transform="translate(48.86965, 54.656293)"><g><path d="M 13.390625 -26.390625 C 14.460938 -27.753906 15.851562 -28.773438 17.5625 -29.453125 C 19.28125 -30.140625 21.242188 -30.484375 23.453125 -30.484375 L 23.453125 -21.03125 C 22.492188 -21.132812 21.703125 -21.1875 21.078125 -21.1875 C 18.828125 -21.1875 17.066406 -20.578125 15.796875 -19.359375 C 14.523438 -18.140625 13.890625 -16.28125 13.890625 -13.78125 L 13.890625 0 L 3.375 0 L 3.375 -29.984375 L 13.390625 -29.984375 Z M 13.390625 -26.390625 "/></g></g></g><g fill="#fafafa" fill-opacity="1"><g transform="translate(70.113001, 54.656293)"><g><path d="M 18.421875 0.5 C 15.210938 0.5 12.316406 -0.160156 9.734375 -1.484375 C 7.148438 -2.816406 5.128906 -4.660156 3.671875 -7.015625 C 2.222656 -9.378906 1.5 -12.054688 1.5 -15.046875 C 1.5 -17.992188 2.222656 -20.648438 3.671875 -23.015625 C 5.128906 -25.378906 7.140625 -27.210938 9.703125 -28.515625 C 12.273438 -29.828125 15.179688 -30.484375 18.421875 -30.484375 C 21.671875 -30.484375 24.585938 -29.828125 27.171875 -28.515625 C 29.753906 -27.210938 31.765625 -25.390625 33.203125 -23.046875 C 34.640625 -20.703125 35.359375 -18.035156 35.359375 -15.046875 C 35.359375 -12.054688 34.640625 -9.378906 33.203125 -7.015625 C 31.765625 -4.660156 29.753906 -2.816406 27.171875 -1.484375 C 24.585938 -0.160156 21.671875 0.5 18.421875 0.5 Z M 18.421875 -7.859375 C 20.265625 -7.859375 21.773438 -8.492188 22.953125 -9.765625 C 24.140625 -11.035156 24.734375 -12.796875 24.734375 -15.046875 C 24.734375 -17.265625 24.140625 -19 22.953125 -20.25 C 21.773438 -21.5 20.265625 -22.125 18.421875 -22.125 C 16.578125 -22.125 15.0625 -21.5 13.875 -20.25 C 12.695312 -19 12.109375 -17.265625 12.109375 -15.046875 C 12.109375 -12.796875 12.695312 -11.035156 13.875 -9.765625 C 15.0625 -8.492188 16.578125 -7.859375 18.421875 -7.859375 Z M 18.421875 -7.859375 "/></g></g></g><g fill="#fafafa" fill-opacity="1"><g transform="translate(103.6933, 54.656293)"><g><path d="M 34.96875 -29.984375 L 22.015625 1.21875 C 20.503906 4.90625 18.660156 7.492188 16.484375 8.984375 C 14.304688 10.484375 11.648438 11.234375 8.515625 11.234375 C 6.929688 11.234375 5.335938 10.984375 3.734375 10.484375 C 2.128906 9.984375 0.828125 9.328125 -0.171875 8.515625 L 3.484375 1.15625 C 4.078125 1.707031 4.785156 2.140625 5.609375 2.453125 C 6.441406 2.773438 7.285156 2.9375 8.140625 2.9375 C 9.128906 2.9375 9.945312 2.734375 10.59375 2.328125 C 11.238281 1.921875 11.785156 1.273438 12.234375 0.390625 L -0.609375 -29.984375 L 10.1875 -29.984375 L 17.53125 -11.671875 L 24.953125 -29.984375 Z M 34.96875 -29.984375 "/></g></g></g><g fill="#fafafa" fill-opacity="1"><g transform="translate(134.728762, 54.656293)"><g><path d="M 38.84375 0 L 38.734375 -20.53125 L 28.765625 -3.8125 L 23.90625 -3.8125 L 14 -19.96875 L 14 0 L 3.875 0 L 3.875 -38.734375 L 12.890625 -38.734375 L 26.5 -16.375 L 39.78125 -38.734375 L 48.796875 -38.734375 L 48.90625 0 Z M 38.84375 0 "/></g></g></g><g fill="#fafafa" fill-opacity="1"><g transform="translate(184.241979, 54.656293)"><g><path d="M 16.15625 -30.484375 C 21.132812 -30.484375 24.929688 -29.347656 27.546875 -27.078125 C 30.171875 -24.816406 31.484375 -21.34375 31.484375 -16.65625 L 31.484375 0 L 21.6875 0 L 21.6875 -3.875 C 20.175781 -0.957031 17.226562 0.5 12.84375 0.5 C 10.507812 0.5 8.492188 0.09375 6.796875 -0.71875 C 5.109375 -1.53125 3.828125 -2.628906 2.953125 -4.015625 C 2.085938 -5.398438 1.65625 -6.972656 1.65625 -8.734375 C 1.65625 -11.578125 2.742188 -13.78125 4.921875 -15.34375 C 7.097656 -16.914062 10.457031 -17.703125 15 -17.703125 L 20.96875 -17.703125 C 20.78125 -20.878906 18.660156 -22.46875 14.609375 -22.46875 C 13.171875 -22.46875 11.710938 -22.234375 10.234375 -21.765625 C 8.753906 -21.304688 7.5 -20.671875 6.46875 -19.859375 L 2.9375 -27 C 4.59375 -28.101562 6.609375 -28.957031 8.984375 -29.5625 C 11.367188 -30.175781 13.757812 -30.484375 16.15625 -30.484375 Z M 15.765625 -6.140625 C 16.984375 -6.140625 18.050781 -6.429688 18.96875 -7.015625 C 19.894531 -7.609375 20.5625 -8.476562 20.96875 -9.625 L 20.96875 -12.234375 L 16.4375 -12.234375 C 13.375 -12.234375 11.84375 -11.21875 11.84375 -9.1875 C 11.84375 -8.257812 12.191406 -7.519531 12.890625 -6.96875 C 13.585938 -6.414062 14.546875 -6.140625 15.765625 -6.140625 Z M 15.765625 -6.140625 "/></g></g></g><g fill="#fafafa" fill-opacity="1"><g transform="translate(215.720017, 54.656293)"><g><path d="M 13.390625 -26.390625 C 14.460938 -27.753906 15.851562 -28.773438 17.5625 -29.453125 C 19.28125 -30.140625 21.242188 -30.484375 23.453125 -30.484375 L 23.453125 -21.03125 C 22.492188 -21.132812 21.703125 -21.1875 21.078125 -21.1875 C 18.828125 -21.1875 17.066406 -20.578125 15.796875 -19.359375 C 14.523438 -18.140625 13.890625 -16.28125 13.890625 -13.78125 L 13.890625 0 L 3.375 0 L 3.375 -29.984375 L 13.390625 -29.984375 Z M 13.390625 -26.390625 "/></g></g></g><g fill="#fafafa" fill-opacity="1"><g transform="translate(236.963369, 54.656293)"><g><path d="M 24.0625 -1.21875 C 23.175781 -0.664062 22.097656 -0.242188 20.828125 0.046875 C 19.554688 0.347656 18.203125 0.5 16.765625 0.5 C 12.859375 0.5 9.851562 -0.457031 7.75 -2.375 C 5.644531 -4.289062 4.59375 -7.148438 4.59375 -10.953125 L 4.59375 -21.03125 L 0.21875 -21.03125 L 0.21875 -28.875 L 4.59375 -28.875 L 4.59375 -36.6875 L 15.109375 -36.6875 L 15.109375 -28.875 L 21.96875 -28.875 L 21.96875 -21.03125 L 15.109375 -21.03125 L 15.109375 -11.0625 C 15.109375 -10 15.390625 -9.160156 15.953125 -8.546875 C 16.523438 -7.941406 17.296875 -7.640625 18.265625 -7.640625 C 19.472656 -7.640625 20.539062 -7.953125 21.46875 -8.578125 Z M 24.0625 -1.21875 "/></g></g></g></g></g></g></g></svg>